<svg version="1.1" xmlns="http://www.w3.org/2000/svg" xmlns:xlink="http://www.w3.org/1999/xlink" width="838.4717627046599" height="590.4410748819055"><defs/><g><g transform="translate(74.56088161114849,115.74107488190539)"><rect fill="#FFFFFF" stroke="none" x="-74.56088161114849" y="-115.74107488190539" width="872.0000000000001" height="591.4410748819055"/><rect fill="#ffffff" stroke="none" x="-74.56088161114849" y="-115.74107488190539" width="872.0000000000001" height="591.4410748819055"/><path fill="none" stroke="#c7b7c7" paint-order="fill stroke markers" d=" M 27.062702919434123 -26.256738769841505 C 151.3088336729098 36.09391800736414 524.3203356138982 36.64013736848686 648.7485394877482 -25.346373167970302" stroke-miterlimit="10" stroke-width="4"/><path fill="#c7b7c7" stroke="none" paint-order="stroke fill markers" d=" M 655.9918450510128 -28.742624707120427 L 644.9014854636337 -14.706816065555543 L 638.1089823853333 -29.193427192084812 L 655.9918450510128 -28.742624707120427 Z"/><path fill="#68aeba" stroke="#c7b7c7" paint-order="fill stroke markers" d=" M 335.26449668051936 8.258239215505084 L 348.16293418051936 8.258239215505084 L 348.16293418051936 28.258239215505085 L 335.26449668051936 28.258239215505085 L 335.26449668051936 8.258239215505084 Z Z" stroke-miterlimit="10" stroke-width="2"/><text fill="#f0d543" stroke="none" font-family="sans-serif" font-size="16px" font-style="normal" font-weight="bold" text-decoration="normal" x="337.26449668051936" y="19.670003921387437" text-anchor="start" dominant-baseline="central">1</text><path fill="none" stroke="#c7b7c7" paint-order="fill stroke markers" d=" M 16.131916406173115 -17.49469428368015 C 40.29076292124013 103.69445069336082 243.69896852985005 365.55778282017866 355.14559242052303 418.94419259434966" stroke-miterlimit="10" stroke-width="4"/><path fill="#c7b7c7" stroke="none" paint-order="stroke fill markers" d=" M 362.26631387861346 422.59046821699405 L 344.3785953397882 422.4186384297957 L 351.671146585077 408.17719551361483 L 362.26631387861346 422.59046821699405 Z"/><path fill="#68aeba" stroke="#c7b7c7" paint-order="fill stroke markers" d=" M 149.74350920484272 217.09620207120767 L 162.64194670484272 217.09620207120767 L 162.64194670484272 237.09620207120767 L 149.74350920484272 237.09620207120767 L 149.74350920484272 217.09620207120767 Z Z" stroke-miterlimit="10" stroke-width="2"/><text fill="#f0d543" stroke="none" font-family="sans-serif" font-size="16px" font-style="normal" font-weight="bold" text-decoration="normal" x="151.74350920484272" y="228.50796677709002" text-anchor="start" dominant-baseline="central">9</text><path fill="none" stroke="#c7b7c7" paint-order="fill stroke markers" d=" M 4.066459114635446 -19.565648151543698 C -35.37390046712386 37.38393702561841 -61.69126125075168 221.39137294891862 -39.79580885807758 287.11341172062333" stroke-miterlimit="10" stroke-width="4"/><path fill="#c7b7c7" stroke="none" paint-order="stroke fill markers" d=" M -37.61207760469146 294.8096002456651 L -49.675728636505475 281.6009544489676 L -34.28335158642192 277.2334919421954 L -37.61207760469146 294.8096002456651 Z"/><path fill="#68aeba" stroke="#c7b7c7" paint-order="fill stroke markers" d=" M -46.80017162481867 123.08432108722883 L -33.90173412481867 123.08432108722883 L -33.90173412481867 143.08432108722883 L -46.80017162481867 143.08432108722883 L -46.80017162481867 123.08432108722883 Z Z" stroke-miterlimit="10" stroke-width="2"/><text fill="#f0d543" stroke="none" font-family="sans-serif" font-size="16px" font-style="normal" font-weight="bold" text-decoration="normal" x="-44.80017162481867" y="134.49608579311118" text-anchor="start" dominant-baseline="central">5</text><path fill="none" stroke="#c7b7c7" paint-order="fill stroke markers" d=" M 655.9372970805659 -42.54326123015839 C 531.6911663270903 -104.89391800736402 158.6796643861019 -105.44013736848676 34.25146051225199 -43.453626832029606" stroke-miterlimit="10" stroke-width="4"/><path fill="#c7b7c7" stroke="none" paint-order="stroke fill markers" d=" M 27.008154948987347 -40.05737529287949 L 38.098514536366515 -54.093183934444355 L 44.891017614666744 -39.60657280791507 L 27.008154948987347 -40.05737529287949 Z"/><path fill="#68aeba" stroke="#c7b7c7" paint-order="fill stroke markers" d=" M 334.83706581948076 -99.88176862726968 L 347.73550331948076 -99.88176862726968 L 347.73550331948076 -79.88176862726968 L 334.83706581948076 -79.88176862726968 L 334.83706581948076 -99.88176862726968 Z Z" stroke-miterlimit="10" stroke-width="2"/><text fill="#f0d543" stroke="none" font-family="sans-serif" font-size="16px" font-style="normal" font-weight="bold" text-decoration="normal" x="336.83706581948076" y="-88.47000392138733" text-anchor="start" dominant-baseline="central">2</text><path fill="none" stroke="#c7b7c7" paint-order="fill stroke markers" d=" M 673.0202663977767 -19.91601431815514 L 721.0696004033351 269.5240214772328" stroke-miterlimit="10" stroke-width="4"/><path fill="#c7b7c7" stroke="none" paint-order="stroke fill markers" d=" M 722.3797336022234 277.4160143181552 L 711.8674743635244 262.94216183519865 L 727.6514600453692 260.32189543742203 L 722.3797336022234 277.4160143181552 Z"/><path fill="#68aeba" stroke="#c7b7c7" paint-order="fill stroke markers" d=" M 691.25078125 117.33823529411768 L 704.14921875 117.33823529411768 L 704.14921875 137.33823529411768 L 691.25078125 137.33823529411768 L 691.25078125 117.33823529411768 Z Z" stroke-miterlimit="10" stroke-width="2"/><text fill="#f0d543" stroke="none" font-family="sans-serif" font-size="16px" font-style="normal" font-weight="bold" text-decoration="normal" x="693.25078125" y="128.75000000000003" text-anchor="start" dominant-baseline="central">7</text><path fill="none" stroke="#c7b7c7" paint-order="fill stroke markers" d=" M 656.8877599758697 -27.13148965512156 C 558.1273135084904 31.743199791732447 391.75186932300477 291.5549902250372 379.59535300006036 405.8881610670531" stroke-miterlimit="10" stroke-width="4"/><path fill="#c7b7c7" stroke="none" paint-order="stroke fill markers" d=" M 378.52418272141625 413.81612387184407 L 372.7385604739134 396.88902798361795 L 388.5944860834954 399.03136854090616 L 378.52418272141625 413.81612387184407 Z"/><path fill="#68aeba" stroke="#c7b7c7" paint-order="fill stroke markers" d=" M 478.1856815841205 161.0532841083949 L 491.0841190841205 161.0532841083949 L 491.0841190841205 181.0532841083949 L 478.1856815841205 181.0532841083949 L 478.1856815841205 161.0532841083949 Z Z" stroke-miterlimit="10" stroke-width="2"/><text fill="#f0d543" stroke="none" font-family="sans-serif" font-size="16px" font-style="normal" font-weight="bold" text-decoration="normal" x="480.1856815841205" y="172.46504881427725" text-anchor="start" dominant-baseline="central">9</text><path fill="none" stroke="#c7b7c7" paint-order="fill stroke markers" d=" M 654.4005488143621 -35.56747921526702 C 487.23169747211494 -37.4442125487849 83.77437425050026 158.65424906146873 -18.02832322166233 291.2632901351557" stroke-miterlimit="10" stroke-width="4"/><path fill="#c7b7c7" stroke="none" paint-order="stroke fill markers" d=" M -23.025333203641164 297.5106808897031 L -19.278703994230856 280.01888939862954 L -6.78392248513613 290.01290936258727 L -23.025333203641164 297.5106808897031 Z"/><path fill="#68aeba" stroke="#c7b7c7" paint-order="fill stroke markers" d=" M 284.25752704748766 68.75289497998546 L 297.15596454748766 68.75289497998546 L 297.15596454748766 88.75289497998546 L 284.25752704748766 88.75289497998546 L 284.25752704748766 68.75289497998546 Z Z" stroke-miterlimit="10" stroke-width="2"/><text fill="#f0d543" stroke="none" font-family="sans-serif" font-size="16px" font-style="normal" font-weight="bold" text-decoration="normal" x="286.25752704748766" y="80.1646596858678" text-anchor="start" dominant-baseline="central">8</text><path fill="none" stroke="#c7b7c7" paint-order="fill stroke markers" d=" M 710.4532875626331 286.537180982155 L 34.420068656050184 -23.10577147323246" stroke-miterlimit="10" stroke-width="4"/><path fill="#c7b7c7" stroke="none" paint-order="stroke fill markers" d=" M 27.146712437366773 -26.43718098215497 L 45.024834383656106 -27.047718182993357 L 38.36201536581108 -12.501005745626534 L 27.146712437366773 -26.43718098215497 Z"/><path fill="#68aeba" stroke="#c7b7c7" paint-order="fill stroke markers" d=" M 362.35078124999995 118.63823529411766 L 375.24921874999995 118.63823529411766 L 375.24921874999995 138.63823529411766 L 362.35078124999995 138.63823529411766 L 362.35078124999995 118.63823529411766 Z Z" stroke-miterlimit="10" stroke-width="2"/><text fill="#f0d543" stroke="none" font-family="sans-serif" font-size="16px" font-style="normal" font-weight="bold" text-decoration="normal" x="364.35078124999995" y="130.05" text-anchor="start" dominant-baseline="central">9</text><path fill="none" stroke="#c7b7c7" paint-order="fill stroke markers" d=" M 729.1911665584976 277.7586877863657 C 749.4351165271618 214.51378421190083 722.126712162598 38.43327567078808 683.6771592842246 -15.708826448822212" stroke-miterlimit="10" stroke-width="4"/><path fill="#c7b7c7" stroke="none" paint-order="stroke fill markers" d=" M 679.3556190168889 -22.441158119038477 L 694.7310312217763 -13.29803504594155 L 681.2663678813439 -4.6549545112703425 L 679.3556190168889 -22.441158119038477 Z"/><path fill="#68aeba" stroke="#c7b7c7" paint-order="fill stroke markers" d=" M 720.3391624805986 112.50933406216062 L 733.2375999805986 112.50933406216062 L 733.2375999805986 132.50933406216063 L 720.3391624805986 132.50933406216063 L 720.3391624805986 112.50933406216062 Z Z" stroke-miterlimit="10" stroke-width="2"/><text fill="#f0d543" stroke="none" font-family="sans-serif" font-size="16px" font-style="normal" font-weight="bold" text-decoration="normal" x="722.3391624805986" y="123.92109876804297" text-anchor="start" dominant-baseline="central">6</text><path fill="none" stroke="#c7b7c7" paint-order="fill stroke markers" d=" M 709.003976286454 293.556686635122 L -8.905964429681076 309.5649700473171" stroke-miterlimit="10" stroke-width="4"/><path fill="#c7b7c7" stroke="none" paint-order="stroke fill markers" d=" M -16.903976286454068 309.7433133648781 L -1.0862958904690592 301.3886148729831 L -0.7296092553471079 317.38463858652915 L -16.903976286454068 309.7433133648781 Z"/><path fill="#68aeba" stroke="#c7b7c7" paint-order="fill stroke markers" d=" M 339.60078124999995 290.23823529411766 L 352.49921874999995 290.23823529411766 L 352.49921874999995 310.23823529411766 L 339.60078124999995 310.23823529411766 L 339.60078124999995 290.23823529411766 Z Z" stroke-miterlimit="10" stroke-width="2"/><text fill="#f0d543" stroke="none" font-family="sans-serif" font-size="16px" font-style="normal" font-weight="bold" text-decoration="normal" x="341.60078124999995" y="301.65000000000003" text-anchor="start" dominant-baseline="central">7</text><path fill="none" stroke="#c7b7c7" paint-order="fill stroke markers" d=" M 373.0680835938269 414.0946942836802 C 348.9092370787599 292.9055493066393 145.50103147014985 31.04221717982131 34.05440757947688 -22.34419259434966" stroke-miterlimit="10" stroke-width="4"/><path fill="#c7b7c7" stroke="none" paint-order="stroke fill markers" d=" M 26.93368612138644 -25.990468216994003 L 44.821404660211655 -25.818638429795758 L 37.52885341492298 -11.577195513614878 L 26.93368612138644 -25.990468216994003 Z"/><path fill="#68aeba" stroke="#c7b7c7" paint-order="fill stroke markers" d=" M 226.5580532951572 156.6802685170277 L 239.4564907951572 156.6802685170277 L 239.4564907951572 176.6802685170277 L 226.5580532951572 176.6802685170277 L 226.5580532951572 156.6802685170277 Z Z" stroke-miterlimit="10" stroke-width="2"/><text fill="#f0d543" stroke="none" font-family="sans-serif" font-size="16px" font-style="normal" font-weight="bold" text-decoration="normal" x="228.5580532951572" y="168.09203322291006" text-anchor="start" dominant-baseline="central">6</text><path fill="none" stroke="#c7b7c7" paint-order="fill stroke markers" d=" M 390.11224002413053 421.13148965512187 C 488.87268649150974 362.25680020826775 655.248130676995 102.44500977496278 667.4046469999392 -11.888161067053058" stroke-miterlimit="10" stroke-width="4"/><path fill="#c7b7c7" stroke="none" paint-order="stroke fill markers" d=" M 668.4758172785833 -19.816123871844056 L 674.2614395260862 -2.8890279836179733 L 658.4055139165041 -5.031368540906145 L 668.4758172785833 -19.816123871844056 Z"/><path fill="#68aeba" stroke="#c7b7c7" paint-order="fill stroke markers" d=" M 555.9158809158794 210.12318647984054 L 568.8143184158794 210.12318647984054 L 568.8143184158794 230.12318647984054 L 555.9158809158794 230.12318647984054 L 555.9158809158794 210.12318647984054 Z Z" stroke-miterlimit="10" stroke-width="2"/><text fill="#f0d543" stroke="none" font-family="sans-serif" font-size="16px" font-style="normal" font-weight="bold" text-decoration="normal" x="557.9158809158794" y="221.5349511857229" text-anchor="start" dominant-baseline="central">7</text><path fill="none" stroke="#c7b7c7" paint-order="fill stroke markers" d=" M 391.4974227227521 423.86332318698146 L 702.6538659158718 301.9550152195279" stroke-miterlimit="10" stroke-width="4"/><path fill="#c7b7c7" stroke="none" paint-order="stroke fill markers" d=" M 710.1025772772479 299.03667681301863 L 698.123492961005 312.3220649874133 L 692.2868161479864 297.42464226466114 L 710.1025772772479 299.03667681301863 Z"/><path fill="#68aeba" stroke="#c7b7c7" paint-order="fill stroke markers" d=" M 544.35078125 350.03823529411767 L 557.24921875 350.03823529411767 L 557.24921875 370.03823529411767 L 544.35078125 370.03823529411767 L 544.35078125 350.03823529411767 Z Z" stroke-miterlimit="10" stroke-width="2"/><text fill="#f0d543" stroke="none" font-family="sans-serif" font-size="16px" font-style="normal" font-weight="bold" text-decoration="normal" x="546.35078125" y="361.45000000000005" text-anchor="start" dominant-baseline="central">1</text><path fill="none" stroke="#c7b7c7" paint-order="fill stroke markers" d=" M 364.5800514875171 419.13965730872053 C 301.0868084977469 359.25708672184203 76.84394061804429 291.7308089010578 -9.158061645320636 306.59586094074683" stroke-miterlimit="10" stroke-width="4"/><path fill="#c7b7c7" stroke="none" paint-order="stroke fill markers" d=" M -17.085757047349176 307.66900846679135 L -2.303513769336633 297.59501801267373 L -0.15721871724755476 313.45040881673077 L -17.085757047349176 307.66900846679135 Z"/><path fill="#68aeba" stroke="#c7b7c7" paint-order="fill stroke markers" d=" M 175.65822713322862 323.36763254175855 L 188.55666463322862 323.36763254175855 L 188.55666463322862 343.36763254175855 L 175.65822713322862 343.36763254175855 L 175.65822713322862 323.36763254175855 Z Z" stroke-miterlimit="10" stroke-width="2"/><text fill="#f0d543" stroke="none" font-family="sans-serif" font-size="16px" font-style="normal" font-weight="bold" text-decoration="normal" x="177.65822713322862" y="334.77939724764093" text-anchor="start" dominant-baseline="central">6</text><path fill="none" stroke="#c7b7c7" paint-order="fill stroke markers" d=" M -24.36645911463552 296.56564815154377 C 15.073900467123789 239.61606297438166 41.39126125075161 55.60862705108142 19.495808858077506 -10.113411720623297" stroke-miterlimit="10" stroke-width="4"/><path fill="#c7b7c7" stroke="none" paint-order="stroke fill markers" d=" M 17.312077604691382 -17.80960024566507 L 29.3757286365054 -4.600954448967647 L 13.983351586421854 -0.23349194219540115 L 17.312077604691382 -17.80960024566507 Z"/><path fill="#68aeba" stroke="#c7b7c7" paint-order="fill stroke markers" d=" M 13.601734124818595 131.09214950100653 L 26.500171624818595 131.09214950100653 L 26.500171624818595 151.09214950100653 L 13.601734124818595 151.09214950100653 L 13.601734124818595 131.09214950100653 Z Z" stroke-miterlimit="10" stroke-width="2"/><text fill="#f0d543" stroke="none" font-family="sans-serif" font-size="16px" font-style="normal" font-weight="bold" text-decoration="normal" x="15.601734124818595" y="142.50391420688888" text-anchor="start" dominant-baseline="central">9</text><path fill="none" stroke="#c7b7c7" paint-order="fill stroke markers" d=" M -18.541711401858656 303.04028693695824 L 648.862567102788 -25.110430405437288" stroke-miterlimit="10" stroke-width="4"/><path fill="#c7b7c7" stroke="none" paint-order="stroke fill markers" d=" M 656.0417114018587 -28.640286936958184 L 645.2132793352382 -14.401429574845697 L 638.1535662721965 -28.75971817298709 L 656.0417114018587 -28.640286936958184 Z"/><path fill="#68aeba" stroke="#c7b7c7" paint-order="fill stroke markers" d=" M 312.30078125000006 125.78823529411767 L 325.19921875000006 125.78823529411767 L 325.19921875000006 145.78823529411767 L 312.30078125000006 145.78823529411767 L 312.30078125000006 125.78823529411767 Z Z" stroke-miterlimit="10" stroke-width="2"/><text fill="#f0d543" stroke="none" font-family="sans-serif" font-size="16px" font-style="normal" font-weight="bold" text-decoration="normal" x="314.30078125000006" y="137.20000000000002" text-anchor="start" dominant-baseline="central">5</text><path fill="none" stroke="#c7b7c7" paint-order="fill stroke markers" d=" M -18.32932438135002 316.71025052596934 C 127.32109423208833 386.36023204050684 560.4620767217854 378.73968533927086 703.5723131014784 304.00933935724265" stroke-miterlimit="10" stroke-width="4"/><path fill="#c7b7c7" stroke="none" paint-order="stroke fill markers" d=" M 710.7384571346795 300.45316448873353 L 699.9623439367864 314.7316582589529 L 692.849994199768 300.39937019255063 L 710.7384571346795 300.45316448873353 Z"/><path fill="#68aeba" stroke="#c7b7c7" paint-order="fill stroke markers" d=" M 340.9746290794575 351.8500264151712 L 353.8730665794575 351.8500264151712 L 353.8730665794575 371.8500264151712 L 340.9746290794575 371.8500264151712 L 340.9746290794575 351.8500264151712 Z Z" stroke-miterlimit="10" stroke-width="2"/><text fill="#f0d543" stroke="none" font-family="sans-serif" font-size="16px" font-style="normal" font-weight="bold" text-decoration="normal" x="342.9746290794575" y="363.2617911210536" text-anchor="start" dominant-baseline="central">3</text><path fill="none" stroke="#c7b7c7" paint-order="fill stroke markers" d=" M -20.8800514875172 320.6603426912796 C 42.61319150225299 380.54291327815815 266.8560593819557 448.0691910989424 352.8580616453206 433.20413905925335" stroke-miterlimit="10" stroke-width="4"/><path fill="#c7b7c7" stroke="none" paint-order="stroke fill markers" d=" M 360.78575704734914 432.1309915332088 L 346.00351376933656 442.20498198732645 L 343.8572187172475 426.3495911832694 L 360.78575704734914 432.1309915332088 Z"/><path fill="#68aeba" stroke="#c7b7c7" paint-order="fill stroke markers" d=" M 155.14333536677128 393.6088380464768 L 168.04177286677128 393.6088380464768 L 168.04177286677128 413.6088380464768 L 155.14333536677128 413.6088380464768 L 155.14333536677128 393.6088380464768 Z Z" stroke-miterlimit="10" stroke-width="2"/><text fill="#f0d543" stroke="none" font-family="sans-serif" font-size="16px" font-style="normal" font-weight="bold" text-decoration="normal" x="157.14333536677128" y="405.0206027523592" text-anchor="start" dominant-baseline="central">2</text><path fill="#68aeba" stroke="#c7b7c7" paint-order="stroke fill markers" d=" M 27.59999999999995 -33.099999999999994 A 15 15 0 1 1 27.599992500000575 -33.1149999975 Z" stroke-miterlimit="10" stroke-width="2"/><g><text fill="none" stroke="#68aeba" font-family="sans-serif" font-size="16px" font-style="normal" font-weight="bold" text-decoration="normal" x="8.150781249999952" y="-33.099999999999994" text-anchor="start" dominant-baseline="central" stroke-linejoin="round" stroke-miterlimit="10" stroke-width="4">1</text></g><text fill="#f0d543" stroke="none" font-family="sans-serif" font-size="16px" font-style="normal" font-weight="bold" text-decoration="normal" x="8.150781249999952" y="-33.099999999999994" text-anchor="start" dominant-baseline="central">1</text><text fill="#68aeba" stroke="none" font-family="sans-serif" font-size="12px" font-style="normal" font-weight="normal" text-decoration="normal" x="12.599999999999952" y="-56.37272727272727" text-anchor="start" dominant-baseline="central"></text><path fill="#68aeba" stroke="#c7b7c7" paint-order="stroke fill markers" d=" M 685.4000000000001 -35.699999999999974 A 15 15 0 1 1 685.3999925000007 -35.71499999749998 Z" stroke-miterlimit="10" stroke-width="2"/><g><text fill="none" stroke="#68aeba" font-family="sans-serif" font-size="16px" font-style="normal" font-weight="bold" text-decoration="normal" x="665.9507812500001" y="-35.699999999999974" text-anchor="start" dominant-baseline="central" stroke-linejoin="round" stroke-miterlimit="10" stroke-width="4">2</text></g><text fill="#f0d543" stroke="none" font-family="sans-serif" font-size="16px" font-style="normal" font-weight="bold" text-decoration="normal" x="665.9507812500001" y="-35.699999999999974" text-anchor="start" dominant-baseline="central">2</text><text fill="#68aeba" stroke="none" font-family="sans-serif" font-size="12px" font-style="normal" font-weight="normal" text-decoration="normal" x="670.4000000000001" y="-58.97272727272725" text-anchor="start" dominant-baseline="central"></text><path fill="#68aeba" stroke="#c7b7c7" paint-order="stroke fill markers" d=" M 740 293.20000000000005 A 15 15 0 1 1 739.9999925000006 293.18500000250003 Z" stroke-miterlimit="10" stroke-width="2"/><g><text fill="none" stroke="#68aeba" font-family="sans-serif" font-size="16px" font-style="normal" font-weight="bold" text-decoration="normal" x="720.55078125" y="293.20000000000005" text-anchor="start" dominant-baseline="central" stroke-linejoin="round" stroke-miterlimit="10" stroke-width="4">3</text></g><text fill="#f0d543" stroke="none" font-family="sans-serif" font-size="16px" font-style="normal" font-weight="bold" text-decoration="normal" x="720.55078125" y="293.20000000000005" text-anchor="start" dominant-baseline="central">3</text><text fill="#68aeba" stroke="none" font-family="sans-serif" font-size="12px" font-style="normal" font-weight="normal" text-decoration="normal" x="725" y="269.9272727272728" text-anchor="start" dominant-baseline="central"></text><path fill="#68aeba" stroke="#c7b7c7" paint-order="stroke fill markers" d=" M 391.59999999999997 429.70000000000005 A 15 15 0 1 1 391.5999925000006 429.68500000250003 Z" stroke-miterlimit="10" stroke-width="2"/><g><text fill="none" stroke="#68aeba" font-family="sans-serif" font-size="16px" font-style="normal" font-weight="bold" text-decoration="normal" x="372.15078124999997" y="429.70000000000005" text-anchor="start" dominant-baseline="central" stroke-linejoin="round" stroke-miterlimit="10" stroke-width="4">4</text></g><text fill="#f0d543" stroke="none" font-family="sans-serif" font-size="16px" font-style="normal" font-weight="bold" text-decoration="normal" x="372.15078124999997" y="429.70000000000005" text-anchor="start" dominant-baseline="central">4</text><text fill="#68aeba" stroke="none" font-family="sans-serif" font-size="12px" font-style="normal" font-weight="normal" text-decoration="normal" x="376.59999999999997" y="406.4272727272728" text-anchor="start" dominant-baseline="central"></text><path fill="#68aeba" stroke="#c7b7c7" paint-order="stroke fill markers" d=" M -17.90000000000005 310.1 A 15 15 0 1 1 -17.900007499999425 310.0850000025 Z" stroke-miterlimit="10" stroke-width="2"/><g><text fill="none" stroke="#68aeba" font-family="sans-serif" font-size="16px" font-style="normal" font-weight="bold" text-decoration="normal" x="-37.34921875000005" y="310.1" text-anchor="start" dominant-baseline="central" stroke-linejoin="round" stroke-miterlimit="10" stroke-width="4">5</text></g><text fill="#f0d543" stroke="none" font-family="sans-serif" font-size="16px" font-style="normal" font-weight="bold" text-decoration="normal" x="-37.34921875000005" y="310.1" text-anchor="start" dominant-baseline="central">5</text><text fill="#68aeba" stroke="none" font-family="sans-serif" font-size="12px" font-style="normal" font-weight="normal" text-decoration="normal" x="-32.90000000000005" y="286.82727272727277" text-anchor="start" dominant-baseline="central"></text></g></g></svg>